<?xml version="1.0" standalone="no"?>
<!DOCTYPE svg PUBLIC "-//W3C//DTD SVG 20010904//EN"
 "http://www.w3.org/TR/2001/REC-SVG-20010904/DTD/svg10.dtd">
<svg version="1.0" xmlns="http://www.w3.org/2000/svg"
 width="678.000000pt" height="678.000000pt" viewBox="0 0 678.000000 678.000000"
 preserveAspectRatio="xMidYMid meet">

<g transform="translate(0.000000,678.000000) scale(0.100000,-0.100000)"
fill="#3377ee" stroke="none">
<path d="M6686 5751 c-4 -5 0 -12 6 -14 13 -5 -164 -11 -342 -12 l-94 0 -18
-200 c-10 -110 -25 -258 -34 -328 -12 -91 -13 -132 -6 -139 18 -18 268 -4 322
17 88 35 103 61 130 222 17 102 26 170 57 421 5 39 -7 57 -21 33z m-117 -173
c2 -6 7 -4 12 3 6 10 9 8 9 -8 0 -13 -4 -23 -9 -23 -5 0 -7 -9 -4 -20 3 -11
-1 -35 -10 -52 -8 -18 -19 -78 -26 -134 -6 -55 -17 -117 -26 -137 l-15 -37
-84 0 c-95 0 -110 9 -100 59 6 30 9 31 58 32 28 1 56 2 61 4 6 1 22 3 38 3 25
2 27 5 27 42 l0 39 -82 3 -83 3 0 30 0 30 85 5 85 5 3 47 3 47 -78 3 -78 3 4
30 c1 17 4 32 6 35 6 10 200 -2 204 -12z"/>
<path d="M5953 5742 c-6 -4 -13 -21 -15 -37 l-3 -30 -90 -5 -90 -5 0 -50 0
-50 76 -6 c42 -4 81 -9 87 -13 14 -9 5 -91 -37 -316 -12 -62 -21 -128 -19
-145 3 -29 5 -30 54 -33 l51 -3 7 43 c4 24 18 120 32 213 13 94 30 183 36 199
13 33 60 56 112 56 33 0 35 2 45 50 6 28 11 53 11 55 0 2 -28 5 -62 7 -59 3
-63 5 -66 28 -2 14 -11 31 -20 38 -17 13 -90 16 -109 4z"/>
<path d="M1540 5683 c-74 -3 -98 -7 -107 -20 -10 -13 -13 -92 -13 -315 l0
-298 -239 0 c-132 0 -242 4 -245 9 -6 8 8 173 19 236 13 77 28 125 41 135 8 7
71 14 153 17 l139 6 6 36 c3 20 8 69 12 109 6 67 6 72 -13 72 -26 0 -475 -60
-488 -65 -5 -2 26 -2 70 0 73 4 76 3 30 -5 -27 -6 -79 -9 -115 -8 -94 2 -407
-14 -419 -22 -6 -3 -12 -40 -14 -81 -1 -40 -6 -80 -10 -87 -5 -7 -1 -19 8 -29
16 -15 27 -15 173 1 85 10 161 20 169 23 17 7 17 -21 -2 -139 -8 -51 -17 -119
-20 -150 l-6 -58 -217 0 c-119 0 -223 -4 -231 -9 -14 -9 -37 -171 -27 -196 4
-13 39 -15 222 -15 l217 0 -6 -32 c-3 -18 -15 -125 -27 -238 l-23 -206 -129
-29 c-76 -17 -128 -34 -128 -41 0 -12 -91 -33 -170 -38 -51 -4 -80 -14 -80
-27 0 -6 10 -40 21 -77 29 -90 57 -114 123 -107 27 4 61 12 75 19 33 16 138
45 201 55 l49 8 -6 -66 c-3 -36 -9 -73 -13 -81 -4 -8 -16 -85 -26 -170 -10
-85 -22 -158 -28 -162 -6 -4 -88 -8 -183 -8 l-172 0 15 -42 c8 -24 19 -63 25
-88 19 -83 9 -80 295 -80 235 0 253 1 258 18 4 10 12 67 20 128 20 156 76 553
84 594 8 40 11 41 276 125 91 28 147 52 163 67 24 24 43 103 43 180 l0 38 -62
-24 c-35 -12 -80 -26 -100 -30 -21 -4 -38 -10 -38 -15 0 -12 -150 -61 -195
-64 -39 -2 -40 -1 -43 34 -4 52 45 341 60 351 7 4 124 8 259 8 l246 0 6 -52
c2 -29 3 -93 0 -143 -5 -102 9 -284 31 -395 8 -41 15 -100 15 -131 1 -48 -3
-59 -26 -81 -42 -38 -300 -201 -365 -231 -55 -25 -78 -42 -40 -31 9 3 -3 -6
-28 -19 -25 -14 -47 -23 -50 -21 -2 3 2 9 10 14 8 6 10 10 4 10 -35 0 -57 -70
-67 -213 -4 -50 -1 -70 8 -73 15 -6 137 40 175 66 14 9 79 47 145 85 66 38
137 83 158 102 45 40 101 46 112 13 3 -11 4 -24 0 -29 -10 -18 15 -235 31
-258 l14 -23 295 0 c294 0 295 0 309 23 20 30 66 168 60 179 -3 4 -99 8 -213
8 -167 0 -211 3 -220 14 -14 17 -27 87 -42 221 l-10 100 126 130 c69 72 170
190 223 262 100 137 202 298 202 320 0 10 -33 13 -133 13 l-132 0 -58 -97
c-77 -130 -249 -344 -261 -325 -2 4 -7 91 -10 192 -4 102 -9 227 -12 278 l-5
92 333 0 c183 0 338 4 345 8 12 8 27 69 37 153 5 46 5 47 -26 53 -17 3 -176 6
-353 6 -253 0 -325 3 -333 13 -8 9 -8 40 -2 103 5 49 10 187 10 307 l0 217
-22 -2 c-13 -1 -66 -4 -118 -5z"/>
<path d="M3268 5663 l-66 -4 -6 -72 c-4 -40 -14 -112 -22 -162 -8 -49 -21
-139 -29 -200 -7 -60 -25 -191 -39 -289 -14 -99 -24 -181 -22 -184 7 -6 307
-11 1027 -17 577 -5 617 -4 631 13 18 20 36 136 78 482 46 381 46 381 22 410
l-20 25 -744 1 c-408 0 -773 -1 -810 -3z m1179 -189 l141 -6 5 -32 c3 -17 1
-35 -4 -40 -5 -6 -9 -28 -9 -51 0 -23 -5 -46 -12 -53 -9 -9 -150 -12 -574 -12
-491 0 -563 2 -574 15 -17 20 -7 155 12 166 7 5 40 9 73 10 33 1 161 5 285 9
220 7 373 6 657 -6z m90 -455 c-3 -44 -8 -83 -12 -87 -3 -3 -259 -8 -568 -10
-507 -4 -564 -3 -576 12 -10 12 -12 35 -6 91 l7 75 580 0 581 0 -6 -81z"/>
<path d="M1899 5623 l-26 -4 29 -110 c16 -61 48 -163 71 -227 l42 -117 118 -3
117 -3 0 28 c0 40 -23 110 -43 133 -9 11 -14 20 -10 20 4 0 2 5 -5 12 -7 7
-12 22 -12 35 0 12 -11 51 -24 85 -12 35 -26 80 -30 100 -4 22 -15 42 -26 48
-18 10 -146 11 -201 3z"/>
<path d="M5763 5493 c-7 -2 -13 -21 -13 -41 0 -45 -21 -126 -44 -169 -9 -18
-36 -53 -61 -79 -25 -25 -45 -50 -45 -54 0 -5 12 -22 26 -39 38 -45 63 -40
113 22 42 50 87 127 76 127 -3 0 -1 8 4 18 13 25 51 166 51 191 0 10 -7 22
-16 25 -18 7 -73 7 -91 -1z"/>
<path d="M6096 5478 c-2 -7 -9 -60 -16 -118 -6 -58 -18 -143 -26 -189 -19
-114 -20 -111 20 -111 33 0 35 2 46 53 12 56 50 328 50 358 0 15 -8 19 -35 19
-20 0 -37 -6 -39 -12z"/>
<path d="M6526 5010 c-32 -10 -62 -22 -67 -27 -17 -17 10 -183 42 -259 27 -65
82 -135 107 -134 11 1 62 76 62 92 0 7 -14 33 -30 57 -42 61 -53 112 -47 209
3 45 2 82 -2 81 -3 0 -32 -9 -65 -19z"/>
<path d="M5714 5003 c-6 -4 -15 -31 -19 -60 -7 -56 -61 -177 -101 -230 -13
-17 -24 -41 -24 -51 0 -20 52 -72 71 -72 14 0 99 119 125 175 22 49 61 221 52
230 -9 9 -93 16 -104 8z"/>
<path d="M5895 4968 c-20 -124 -46 -334 -43 -361 l3 -32 203 -3 c187 -2 206
-1 251 19 27 11 66 39 86 61 32 34 36 44 31 73 -12 61 -73 85 -102 40 -36 -55
-71 -66 -201 -63 l-118 3 0 50 c0 28 4 94 8 148 l8 97 -60 0 c-60 0 -60 0 -66
-32z"/>
<path d="M6095 4956 c-13 -84 -20 -81 163 -84 l162 -2 0 65 0 65 -159 0 -160
0 -6 -44z"/>
<path d="M2848 4563 c23 -2 59 -2 80 0 20 2 1 4 -43 4 -44 0 -61 -2 -37 -4z"/>
<path d="M3110 4560 c-52 -4 -143 -8 -201 -9 -124 -1 -118 5 -109 -111 l5 -75
175 0 c96 0 298 -1 449 -3 l274 -2 -6 -52 c-14 -117 -37 -278 -51 -353 -9 -44
-15 -101 -16 -127 0 -27 -2 -48 -5 -48 -23 0 -122 65 -229 151 l-128 102 7 46
c4 25 15 65 26 88 39 86 29 93 -127 93 l-102 0 -46 -109 c-105 -251 -229 -478
-333 -608 -18 -23 -33 -46 -33 -52 0 -5 -6 -14 -12 -18 -18 -11 -16 -37 2 -45
26 -12 217 -9 245 4 29 13 91 96 152 203 83 144 108 184 117 185 4 0 49 -35
100 -78 126 -109 178 -142 292 -190 144 -59 220 -81 315 -92 46 -6 116 -15
154 -21 39 -7 226 -14 422 -16 l351 -4 25 33 c27 35 63 166 50 179 -5 4 -181
9 -393 12 -313 3 -401 7 -471 21 -47 10 -91 21 -99 26 -12 7 -12 24 -1 112 7
56 14 105 17 109 2 3 158 9 346 13 189 4 359 9 378 12 27 3 31 2 15 -5 -18 -8
-16 -10 11 -10 16 -1 39 6 50 15 10 8 13 13 7 9 -15 -7 -17 4 -3 25 5 8 10 11
11 5 2 -34 18 41 18 93 l1 62 -389 0 c-327 0 -390 2 -401 14 -11 14 -5 92 16
194 l4 22 473 0 c371 1 476 3 489 14 9 7 22 32 27 57 13 55 14 132 2 125 -5
-4 -11 -1 -13 5 -3 9 -9 9 -25 0 -15 -8 -30 -8 -48 -1 -17 7 -24 7 -20 0 4 -7
-67 -9 -207 -8 -164 1 -191 3 -118 8 52 3 -229 6 -625 6 -396 1 -763 -3 -815
-6z"/>
<path d="M6117 4433 c-30 -3 -50 -10 -54 -19 -4 -11 -39 -14 -195 -14 l-189 0
6 -72 c4 -40 8 -79 10 -85 6 -18 49 -16 93 4 28 13 83 19 227 25 105 4 239 10
299 13 104 5 113 4 159 -21 56 -29 120 -39 135 -21 6 7 15 39 21 71 13 71 14
137 3 118 -13 -19 -113 -32 -254 -32 -104 0 -129 3 -136 15 -9 18 -55 24 -125
18z m-64 -50 c-7 -2 -19 -2 -25 0 -7 3 -2 5 12 5 14 0 19 -2 13 -5z m445 0
c-10 -2 -28 -2 -40 0 -13 2 -5 4 17 4 22 1 32 -1 23 -4z"/>
<path d="M5753 4173 l-83 -4 0 -54 c0 -31 5 -57 12 -61 6 -4 55 -6 107 -5 l96
2 37 37 c20 20 40 49 43 65 l7 27 -68 -2 c-38 -1 -106 -4 -151 -5z"/>
<path d="M6335 4168 c-4 -9 -5 -37 -3 -64 l3 -49 109 -3 c130 -3 146 5 146 75
0 28 -4 43 -12 43 -7 0 -64 3 -125 7 -95 5 -113 3 -118 -9z"/>
<path d="M6529 3932 c-12 -14 -36 -20 -98 -25 -45 -4 -86 -9 -92 -12 -5 -4 -9
-39 -9 -78 0 -104 -26 -251 -57 -315 -14 -31 -51 -79 -83 -111 -65 -64 -66
-76 -5 -129 l36 -32 43 35 c64 52 126 131 146 183 17 48 45 177 55 265 5 40
12 51 41 70 38 25 59 62 69 125 6 37 4 42 -12 42 -10 0 -26 -8 -34 -18z"/>
<path d="M5662 3910 c-46 -19 -54 -97 -13 -119 15 -9 28 -1 75 47 31 31 52 60
47 65 -13 13 -83 18 -109 7z"/>
<path d="M5714 3748 c-4 -13 -17 -36 -29 -53 -30 -40 -46 -100 -38 -148 11
-69 82 -151 151 -175 45 -15 146 -4 196 21 81 40 149 130 167 220 10 50 9 60
-10 100 -13 27 -31 47 -44 51 -12 3 -104 6 -204 6 -180 0 -182 0 -189 -22z
m268 -38 c19 -16 39 -41 42 -55 10 -40 -11 -99 -46 -134 -56 -55 -103 -54
-162 3 -30 27 -36 41 -36 73 0 43 26 75 97 119 50 30 61 30 105 -6z"/>
<path d="M5884 3231 c-40 -10 -54 -19 -54 -36 0 -8 -18 -20 -41 -26 -32 -10
-50 -10 -91 1 -46 11 -53 11 -64 -4 -17 -24 -27 -87 -16 -98 10 -10 471 -12
495 -2 17 6 47 67 47 94 0 17 -7 20 -42 20 -24 0 -59 -4 -79 -9 -34 -8 -39 -6
-73 30 -20 22 -40 39 -44 38 -4 -1 -21 -4 -38 -8z"/>
<path d="M6537 3190 c-54 -10 -67 -28 -73 -96 -4 -65 -19 -84 -66 -84 -15 0
-36 8 -46 18 -17 17 -17 26 -8 81 12 72 6 81 -56 81 -48 0 -54 -12 -74 -142
-8 -57 -23 -155 -34 -218 -11 -63 -28 -187 -40 -275 -11 -88 -26 -185 -34
-217 -13 -57 -58 -128 -115 -182 -40 -38 -39 -57 4 -95 l36 -31 44 36 c51 44
74 73 107 139 38 76 45 104 78 320 16 110 35 236 42 280 l13 80 83 12 c137 19
166 49 192 200 12 68 10 104 -7 102 -4 -1 -25 -5 -46 -9z"/>
<path d="M6055 2979 c-22 -4 -124 -8 -226 -8 l-186 -1 -23 -162 c-12 -90 -20
-176 -19 -193 l4 -30 77 -3 77 -3 -4 -27 c-2 -15 -9 -65 -15 -112 -7 -47 -20
-104 -30 -127 -10 -23 -16 -44 -12 -47 3 -3 1 -6 -5 -6 -6 0 -16 -13 -22 -28
-7 -16 -34 -51 -62 -78 -27 -26 -49 -54 -49 -60 0 -19 70 -75 83 -68 37 22 86
67 81 75 -3 5 0 9 5 9 16 0 86 146 105 220 10 36 23 103 29 150 l12 84 63 22
c61 21 104 51 123 86 7 13 59 285 59 310 0 9 -10 9 -65 -3z m-91 -191 c-3 -35
-9 -66 -13 -69 -11 -11 -177 -17 -195 -7 -15 8 -16 19 -10 66 3 32 8 60 11 65
2 4 51 7 109 7 l105 0 -7 -62z"/>
<path d="M6444 2818 l-61 -19 -27 -163 c-35 -216 -56 -388 -56 -457 0 -53 2
-59 39 -92 88 -80 201 -51 227 57 6 27 5 29 -17 22 -56 -18 -75 -17 -99 2 -29
23 -29 46 0 222 21 128 62 442 58 445 -2 2 -31 -6 -64 -17z"/>
<path d="M420 2801 c-5 -11 -10 -38 -10 -60 l0 -41 -62 2 -63 1 60 8 c60 7 60
7 -18 5 -92 -2 -97 -6 -97 -89 0 -91 6 -97 100 -97 78 0 80 -1 80 -24 0 -14 4
-36 10 -50 9 -25 13 -26 84 -26 65 0 75 3 81 19 3 10 5 23 4 27 -1 5 -1 19 0
32 l1 22 424 0 425 0 3 -47 3 -48 81 -3 82 -3 12 51 12 50 83 0 c97 0 95 -2
95 106 0 84 13 75 -110 77 l-65 2 -9 46 -9 47 -73 7 c-40 4 -78 4 -83 1 -5 -4
-13 -27 -17 -51 l-6 -45 -107 -2 c-58 -1 -207 0 -331 1 -124 1 -259 -2 -301
-6 -89 -10 -104 -1 -115 65 l-7 42 -73 0 c-62 0 -75 -3 -84 -19z m1003 -98
c-18 -2 -48 -2 -65 0 -18 2 -4 4 32 4 36 0 50 -2 33 -4z m-410 -10 c-62 -2
-165 -2 -230 0 -65 1 -14 3 112 3 127 0 180 -2 118 -3z"/>
<path d="M2740 2765 l0 -55 -250 7 c-231 6 -250 5 -244 -10 3 -10 2 -17 -4
-17 -6 0 -12 -159 -17 -433 -8 -484 -9 -479 59 -511 30 -14 96 -16 594 -16
l559 0 8 -362 c4 -200 9 -366 12 -370 8 -14 59 -9 79 8 18 14 18 15 -3 4 -13
-6 -23 -8 -23 -6 0 10 81 47 89 41 5 -2 12 2 15 11 9 23 7 837 -2 851 -6 10
-143 13 -608 15 l-599 3 -3 303 -2 302 430 0 430 0 0 -201 c0 -112 4 -208 10
-219 8 -14 16 -17 43 -11 40 9 77 29 77 40 0 5 8 8 17 7 27 -2 31 35 32 296
l1 248 -25 16 c-23 15 -52 16 -250 12 -152 -4 -227 -2 -234 5 -6 6 -11 22 -11
35 0 53 -14 62 -100 62 l-80 0 0 -55z m-427 -62 c-7 -2 -21 -2 -30 0 -10 3 -4
5 12 5 17 0 24 -2 18 -5z m1004 1 c-3 -3 -12 -4 -19 -1 -8 3 -5 6 6 6 11 1 17
-2 13 -5z"/>
<path d="M5990 2523 l-55 -22 -7 -68 c-3 -37 -12 -92 -19 -121 -12 -49 -11
-54 8 -73 19 -20 22 -20 51 -5 24 12 35 28 46 66 18 60 39 199 34 226 -3 19
-4 19 -58 -3z"/>
<path d="M5592 2521 c-7 -4 -17 -37 -22 -72 -6 -35 -14 -91 -20 -124 -9 -56
-9 -61 11 -77 12 -10 26 -18 31 -18 16 0 68 57 69 77 0 10 2 27 4 38 1 11 5
36 8 55 3 19 10 54 15 76 l9 42 -36 6 c-47 8 -53 7 -69 -3z"/>
<path d="M2820 2423 c-30 -3 -60 -9 -67 -15 -9 -8 -13 -49 -13 -149 0 -126 2
-141 20 -159 22 -22 90 -27 134 -10 l26 10 0 151 c0 133 -2 153 -17 165 -10 7
-20 13 -23 12 -3 -1 -30 -3 -60 -5z"/>
<path d="M340 2342 c-34 -5 -50 -28 -50 -77 0 -65 18 -81 97 -88 37 -4 354 -7
703 -7 l635 -1 9 46 c4 25 5 64 2 88 l-6 42 -683 0 c-375 0 -693 -1 -707 -3z"/>
<path d="M1483 2078 c-29 -14 -31 -23 -22 -93 4 -33 8 -83 8 -111 1 -59 7 -64
81 -64 63 0 67 8 70 130 4 132 5 128 -37 139 -46 13 -71 13 -100 -1z"/>
<path d="M415 2039 c-9 -50 4 -199 17 -216 7 -8 35 -13 74 -13 60 0 65 2 74
26 11 28 13 165 4 213 l-6 31 -78 0 -78 0 -7 -41z"/>
<path d="M935 2063 c-7 -20 -4 -193 4 -223 7 -24 10 -25 81 -25 l75 0 7 40 c9
53 10 187 0 201 -4 6 -42 13 -84 16 -61 4 -78 2 -83 -9z"/>
<path d="M6016 1923 c-27 -3 -40 -10 -43 -23 -5 -18 -14 -19 -177 -13 -202 7
-199 9 -194 -89 l3 -63 38 -3 c24 -2 49 4 70 16 27 16 60 21 197 27 260 11
440 7 475 -11 36 -18 131 -28 139 -15 11 18 29 171 21 179 -4 4 -10 1 -12 -5
-3 -7 -13 -13 -23 -13 -10 0 -20 -6 -23 -14 -5 -12 -35 -15 -168 -13 -156 1
-162 2 -176 24 -16 24 -31 26 -127 16z"/>
<path d="M939 1695 c-12 -19 -28 -35 -36 -35 -8 0 -12 -3 -10 -8 3 -4 -127 -5
-288 -3 -336 4 -317 9 -350 -96 -17 -54 -17 -57 0 -70 13 -9 50 -13 112 -13
51 0 93 -1 93 -2 0 -3 -27 -74 -130 -347 -52 -137 -50 -145 40 -149 66 -3 110
14 110 44 0 8 14 47 31 87 17 40 55 137 84 217 l52 145 141 3 142 3 0 -229 c0
-219 1 -230 21 -248 14 -12 36 -19 72 -19 81 -2 89 6 86 78 -1 34 -1 142 0
240 l1 178 136 -3 135 -3 39 -95 c21 -52 62 -156 91 -230 29 -74 59 -141 67
-147 8 -7 25 -10 36 -7 12 3 42 1 66 -5 78 -17 83 8 27 142 -19 45 -56 137
-81 205 -26 67 -52 122 -57 122 -6 0 -7 5 -4 10 3 6 48 10 100 10 117 0 125 3
125 47 0 37 -46 133 -64 134 -6 0 -143 0 -303 -1 l-293 -1 -16 35 c-18 36 -42
46 -116 46 -34 0 -41 -4 -59 -35z"/>
<path d="M5686 1672 c-50 -2 -96 -8 -103 -14 -15 -12 -17 -71 -3 -98 9 -16 18
-18 63 -14 162 15 156 14 190 51 39 42 51 62 43 71 -8 7 -63 8 -190 4z"/>
<path d="M6244 1667 c-18 -10 -19 -90 -1 -105 8 -6 43 -7 102 -1 50 5 102 6
118 3 21 -4 27 -2 27 13 0 10 3 36 7 57 3 23 2 37 -3 34 -5 -3 -60 -3 -122 1
-62 3 -120 2 -128 -2z"/>
<path d="M6395 1415 c-22 -7 -66 -16 -97 -20 l-58 -6 0 -59 c0 -32 -7 -112
-16 -177 -19 -136 -50 -206 -129 -283 -25 -24 -45 -52 -45 -62 0 -21 57 -88
75 -88 22 0 145 130 169 179 25 48 51 159 61 251 7 59 32 141 43 138 22 -6 49
17 65 55 21 52 22 73 1 81 -19 7 -20 7 -69 -9z"/>
<path d="M5568 1395 c-28 -16 -46 -69 -34 -100 15 -39 136 43 136 92 0 20 -5
23 -37 23 -21 -1 -50 -7 -65 -15z"/>
<path d="M2150 1318 c-5 -13 -11 -40 -15 -60 -3 -21 -10 -38 -15 -38 -16 0
-11 -26 8 -41 14 -12 103 -13 562 -9 l545 5 3 83 3 82 -541 0 -540 0 -10 -22z"/>
<path d="M5755 1252 l-120 -3 -34 -45 c-32 -42 -34 -51 -37 -129 -2 -95 11
-126 80 -186 39 -34 40 -34 131 -33 97 2 116 8 178 57 58 47 96 114 103 184 7
61 -6 123 -29 141 -15 12 -120 18 -272 14z m108 -43 c12 -6 32 -21 45 -32 46
-42 19 -148 -49 -195 -41 -29 -80 -25 -137 13 -43 28 -59 63 -42 92 5 10 14
30 20 46 10 29 91 87 123 87 10 0 28 -5 40 -11z"/>
<path d="M1628 973 c7 -3 16 -2 19 1 4 3 -2 6 -13 5 -11 0 -14 -3 -6 -6z"/>
</g>
</svg>
